ffmpeg version 3.4.8-0ubuntu0.2 Copyright (c) 2000-2020 the FFmpeg developers
  built with gcc 7 (Ubuntu 7.5.0-3ubuntu1~18.04)
  configuration: --prefix=/usr --extra-version=0ubuntu0.2 --toolchain=hardened --libdir=/usr/lib/x86_64-linux-gnu --incdir=/usr/include/x86_64-linux-gnu --enable-gpl --disable-stripping --enable-avresample --enable-avisynth --enable-gnutls --enable-ladspa --enable-libass --enable-libbluray --enable-libbs2b --enable-libcaca --enable-libcdio --enable-libflite --enable-libfontconfig --enable-libfreetype --enable-libfribidi --enable-libgme --enable-libgsm --enable-libmp3lame --enable-libmysofa --enable-libopenjpeg --enable-libopenmpt --enable-libopus --enable-libpulse --enable-librubberband --enable-librsvg --enable-libshine --enable-libsnappy --enable-libsoxr --enable-libspeex --enable-libssh --enable-libtheora --enable-libtwolame --enable-libvorbis --enable-libvpx --enable-libwavpack --enable-libwebp --enable-libx265 --enable-libxml2 --enable-libxvid --enable-libzmq --enable-libzvbi --enable-omx --enable-openal --enable-opengl --enable-sdl2 --enable-libdc1394 --enable-libdrm --enable-libiec61883 --enable-chromaprint --enable-frei0r --enable-libopencv --enable-libx264 --enable-shared
  libavutil      55. 78.100 / 55. 78.100
  libavcodec     57.107.100 / 57.107.100
  libavformat    57. 83.100 / 57. 83.100
  libavdevice    57. 10.100 / 57. 10.100
  libavfilter     6.107.100 /  6.107.100
  libavresample   3.  7.  0 /  3.  7.  0
  libswscale      4.  8.100 /  4.  8.100
  libswresample   2.  9.100 /  2.  9.100
  libpostproc    54.  7.100 / 54.  7.100
[rawvideo @ 0x55dd11f29a20] Estimating duration from bitrate, this may be inaccurate
Input #0, rawvideo, from '../../SVC-Encoder-20220109T061506Z-001/SVC-Encoder/Dataset/RollerCoaster/ERP_8x8/tile_yuv/Tile_40_480x240.yuv':
  Duration: 00:00:10.00, start: 0.000000, bitrate: 41472 kb/s
    Stream #0:0: Video: rawvideo (I420 / 0x30323449), yuv420p, 480x240, 41472 kb/s, 30 tbr, 30 tbn, 30 tbc
Stream mapping:
  Stream #0:0 -> #0:0 (rawvideo (native) -> h264 (libx264))
Press [q] to stop, [?] for help
[libx264 @ 0x55dd11f36c60] using cpu capabilities: MMX2 SSE2Fast LZCNT SSSE3 SSE4.2 AVX
[libx264 @ 0x55dd11f36c60] profile High, level 2.1
Output #0, rawvideo, to 'RollerCoaster_Tile_40_480x240_x264_QP_36.h264':
  Metadata:
    encoder         : Lavf57.83.100
    Stream #0:0: Video: h264 (libx264), yuv420p, 480x240, q=-1--1, 30 fps, 30 tbn, 30 tbc
    Metadata:
      encoder         : Lavc57.107.100 libx264
    Side data:
      cpb: bitrate max/min/avg: 0/0/0 buffer size: 0 vbv_delay: -1
frame=  188 fps=0.0 q=42.0 PSNR=Y:nan U:nan V:nan *:nan size=      52kB time=00:00:04.83 bitrate=  87.7kbits/s speed=9.65x    frame=  300 fps=0.0 q=42.0 LPSNR=Y:inf U:inf V:inf *:inf size=     103kB time=00:00:09.93 bitrate=  84.6kbits/s speed=11.4x    
video:103kB audio:0kB subtitle:0kB other streams:0kB global headers:0kB muxing overhead: 0.000000%
[libx264 @ 0x55dd11f36c60] frame I:2     Avg QP:33.61  size:  7640  PSNR Mean Y:34.76 U:43.36 V:43.21 Avg:36.22 Global:36.15
[libx264 @ 0x55dd11f36c60] frame P:76    Avg QP:35.16  size:   730  PSNR Mean Y:33.83 U:43.66 V:43.63 Avg:35.37 Global:35.34
[libx264 @ 0x55dd11f36c60] frame B:222   Avg QP:41.58  size:   155  PSNR Mean Y:33.48 U:43.54 V:43.51 Avg:35.03 Global:35.02
[libx264 @ 0x55dd11f36c60] consecutive B-frames:  1.0%  0.7%  1.0% 97.3%
[libx264 @ 0x55dd11f36c60] mb I  I16..4: 16.2% 60.9% 22.9%
[libx264 @ 0x55dd11f36c60] mb P  I16..4:  0.4%  0.7%  0.3%  P16..4: 38.5%  8.5%  2.4%  0.0%  0.0%    skip:49.2%
[libx264 @ 0x55dd11f36c60] mb B  I16..4:  0.0%  0.0%  0.0%  B16..8: 24.5%  0.8%  0.1%  direct: 0.0%  skip:74.6%  L0:40.1% L1:58.9% BI: 1.1%
[libx264 @ 0x55dd11f36c60] 8x8 transform intra:56.2% inter:80.4%
[libx264 @ 0x55dd11f36c60] coded y,uvDC,uvAC intra: 60.7% 51.2% 8.5% inter: 2.4% 1.1% 0.0%
[libx264 @ 0x55dd11f36c60] i16 v,h,dc,p: 20% 24% 26% 31%
[libx264 @ 0x55dd11f36c60] i8 v,h,dc,ddl,ddr,vr,hd,vl,hu:  8% 31% 21%  4%  6%  4%  9%  5% 12%
[libx264 @ 0x55dd11f36c60] i4 v,h,dc,ddl,ddr,vr,hd,vl,hu: 12% 30% 17%  4% 11%  7%  8%  3%  8%
[libx264 @ 0x55dd11f36c60] i8c dc,h,v,p: 60% 19% 13%  8%
[libx264 @ 0x55dd11f36c60] Weighted P-Frames: Y:0.0% UV:0.0%
[libx264 @ 0x55dd11f36c60] ref P L0: 57.2% 17.5% 19.4%  5.9%
[libx264 @ 0x55dd11f36c60] ref B L0: 77.4% 18.5%  4.1%
[libx264 @ 0x55dd11f36c60] ref B L1: 78.8% 21.2%
[libx264 @ 0x55dd11f36c60] PSNR Mean Y:33.577 U:43.569 V:43.537 Avg:35.125 Global:35.107 kb/s:84.08
